<svg xmlns="http://www.w3.org/2000/svg" xmlns:xlink="http://www.w3.org/1999/xlink" width="500" zoomAndPan="magnify" viewBox="0 0 375 374.999991" height="500" preserveAspectRatio="xMidYMid meet" version="1.2"><defs/><g id="6ec64bca25"><rect x="0" width="375" y="0" height="374.999991" style="fill:#ffffff;fill-opacity:1;stroke:none;"/><rect x="0" width="375" y="0" height="374.999991" style="fill:#eeeeee;fill-opacity:1;stroke:none;"/><g style="fill:#ff6f00;fill-opacity:1;"><g transform="translate(164.402159, 246.502577)"><path style="stroke:none" d="M 128.765625 14.828125 C 133.878906 14.828125 138.613281 15.234375 142.96875 16.046875 C 147.332031 16.859375 151.460938 18.109375 155.359375 19.796875 C 159.253906 21.484375 163.035156 23.632812 166.703125 26.25 C 170.367188 28.875 174.003906 31.988281 177.609375 35.59375 L 176.90625 36.46875 C 173.539062 33.5625 169.703125 31.117188 165.390625 29.140625 C 161.085938 27.160156 156.609375 25.617188 151.953125 24.515625 C 147.304688 23.410156 142.628906 22.625 137.921875 22.15625 C 133.210938 21.6875 128.703125 21.453125 124.390625 21.453125 C 117.765625 21.453125 111.253906 21.859375 104.859375 22.671875 C 98.460938 23.492188 92.003906 24.425781 85.484375 25.46875 L 74.5 27.21875 C 68.101562 28.257812 61.675781 29.1875 55.21875 30 C 48.757812 30.820312 42.21875 31.234375 35.59375 31.234375 C 29.425781 31.234375 23.375 30.359375 17.4375 28.609375 C 11.507812 26.867188 6.21875 24.28125 1.5625 20.84375 C -3.082031 17.414062 -6.828125 13.113281 -9.671875 7.9375 C -12.523438 2.757812 -13.953125 -3.257812 -13.953125 -10.125 C -13.953125 -14.3125 -13.367188 -18.410156 -12.203125 -22.421875 C -11.046875 -26.429688 -9.363281 -30.125 -7.15625 -33.5 C -4.945312 -36.875 -2.242188 -39.894531 0.953125 -42.5625 C 4.148438 -45.238281 7.726562 -47.332031 11.6875 -48.84375 L 11.6875 -74.671875 C 11.6875 -76.992188 11.25 -79.203125 10.375 -81.296875 C 9.507812 -83.390625 7.851562 -84.785156 5.40625 -85.484375 L 28.4375 -85.484375 C 25.875 -84.785156 24.1875 -83.390625 23.375 -81.296875 C 22.5625 -79.203125 22.15625 -76.992188 22.15625 -74.671875 L 22.15625 -51.46875 C 23.4375 -51.8125 24.71875 -52.039062 26 -52.15625 C 27.28125 -52.28125 28.554688 -52.34375 29.828125 -52.34375 C 36.109375 -52.34375 42.039062 -51.320312 47.625 -49.28125 C 53.207031 -47.25 58.210938 -44.023438 62.640625 -39.609375 L 62.640625 -74.84375 C 62.640625 -77.175781 62.203125 -79.359375 61.328125 -81.390625 C 60.453125 -83.421875 58.796875 -84.785156 56.359375 -85.484375 L 79.390625 -85.484375 C 76.828125 -84.785156 75.140625 -83.421875 74.328125 -81.390625 C 73.515625 -79.359375 73.109375 -77.175781 73.109375 -74.84375 L 73.109375 -10.8125 C 73.109375 -8.488281 73.570312 -6.28125 74.5 -4.1875 C 75.425781 -2.09375 77.054688 -0.695312 79.390625 0 L 56.359375 0 C 58.796875 -0.695312 60.453125 -2.117188 61.328125 -4.265625 C 62.203125 -6.421875 62.640625 -8.660156 62.640625 -10.984375 L 62.640625 -37.6875 C 58.679688 -41.519531 54.203125 -44.570312 49.203125 -46.84375 C 44.203125 -49.113281 38.910156 -50.25 33.328125 -50.25 C 31.347656 -50.25 29.457031 -50.21875 27.65625 -50.15625 C 25.851562 -50.101562 24.019531 -49.84375 22.15625 -49.375 L 22.15625 -10.8125 C 22.15625 -8.488281 22.59375 -6.28125 23.46875 -4.1875 C 24.34375 -2.09375 26 -0.695312 28.4375 0 L 5.40625 0 C 7.851562 -0.695312 9.507812 -2.117188 10.375 -4.265625 C 11.25 -6.421875 11.6875 -8.660156 11.6875 -10.984375 L 11.6875 -45.890625 C 4.363281 -42.160156 -0.804688 -36.863281 -3.828125 -30 C -6.859375 -23.144531 -8.375 -15.820312 -8.375 -8.03125 C -8.375 -1.632812 -7.0625 3.945312 -4.4375 8.71875 C -1.820312 13.488281 1.601562 17.441406 5.84375 20.578125 C 10.09375 23.722656 14.976562 26.050781 20.5 27.5625 C 26.019531 29.070312 31.632812 29.828125 37.34375 29.828125 C 44.3125 29.828125 51.082031 29.21875 57.65625 28 C 64.226562 26.78125 70.832031 25.359375 77.46875 23.734375 L 88.625 20.9375 C 95.257812 19.3125 101.863281 17.882812 108.4375 16.65625 C 115.007812 15.4375 121.785156 14.828125 128.765625 14.828125 Z M 128.765625 14.828125 "/></g></g><g style="fill:#ff6f00;fill-opacity:1;"><g transform="translate(102.474191, 204.919316)"><path style="stroke:none" d="M 81.828125 -5.9375 C 81.828125 -0.113281 80.894531 5.175781 79.03125 9.9375 C 77.175781 14.707031 74.53125 18.78125 71.09375 22.15625 C 67.664062 25.53125 63.566406 28.144531 58.796875 30 C 54.023438 31.863281 48.734375 32.796875 42.921875 32.796875 C 37.691406 32.796875 32.691406 31.984375 27.921875 30.359375 C 23.148438 28.734375 18.960938 26.378906 15.359375 23.296875 C 11.753906 20.210938 8.875 16.457031 6.71875 12.03125 C 4.5625 7.613281 3.484375 2.613281 3.484375 -2.96875 C 3.484375 -8.320312 4.414062 -12.914062 6.28125 -16.75 C 8.144531 -20.59375 10.675781 -23.765625 13.875 -26.265625 C 17.070312 -28.765625 20.820312 -30.625 25.125 -31.84375 C 29.425781 -33.0625 34.019531 -33.671875 38.90625 -33.671875 L 38.90625 -32.984375 C 34.71875 -32.742188 30.847656 -31.722656 27.296875 -29.921875 C 23.753906 -28.117188 20.734375 -25.765625 18.234375 -22.859375 C 15.734375 -19.953125 13.785156 -16.632812 12.390625 -12.90625 C 10.992188 -9.1875 10.296875 -5.234375 10.296875 -1.046875 C 10.296875 3.722656 11.078125 8.054688 12.640625 11.953125 C 14.210938 15.847656 16.394531 19.191406 19.1875 21.984375 C 21.976562 24.773438 25.351562 26.925781 29.3125 28.4375 C 33.269531 29.945312 37.632812 30.703125 42.40625 30.703125 C 51.820312 30.703125 59.175781 27.941406 64.46875 22.421875 C 69.757812 16.898438 72.40625 9.425781 72.40625 0 C 72.40625 -5 71.269531 -9.5625 69 -13.6875 C 66.738281 -17.820312 63.890625 -21.722656 60.453125 -25.390625 C 57.023438 -29.054688 53.300781 -32.570312 49.28125 -35.9375 C 45.269531 -39.3125 41.550781 -42.6875 38.125 -46.0625 C 34.695312 -49.4375 31.847656 -52.925781 29.578125 -56.53125 C 27.304688 -60.132812 26.171875 -64.03125 26.171875 -68.21875 C 26.171875 -71.25 26.722656 -73.984375 27.828125 -76.421875 C 28.929688 -78.867188 30.441406 -80.90625 32.359375 -82.53125 C 34.285156 -84.15625 36.523438 -85.40625 39.078125 -86.28125 C 41.640625 -87.15625 44.375 -87.59375 47.28125 -87.59375 C 48.445312 -87.59375 49.582031 -87.472656 50.6875 -87.234375 C 51.789062 -87.003906 52.867188 -86.773438 53.921875 -86.546875 L 58.28125 -85.140625 C 60.601562 -84.441406 62.8125 -84.09375 64.90625 -84.09375 C 66.53125 -84.09375 67.8125 -84.734375 68.75 -86.015625 L 67.53125 -65.78125 C 67.0625 -68.101562 66.242188 -70.484375 65.078125 -72.921875 C 63.921875 -75.367188 62.4375 -77.582031 60.625 -79.5625 C 58.820312 -81.539062 56.785156 -83.195312 54.515625 -84.53125 C 52.253906 -85.875 49.785156 -86.546875 47.109375 -86.546875 C 42.804688 -86.546875 39.113281 -85.378906 36.03125 -83.046875 C 32.945312 -80.722656 31.40625 -77.234375 31.40625 -72.578125 C 31.40625 -68.972656 32.65625 -65.515625 35.15625 -62.203125 C 37.65625 -58.890625 40.765625 -55.632812 44.484375 -52.4375 C 48.210938 -49.238281 52.253906 -45.976562 56.609375 -42.65625 C 60.972656 -39.34375 65.015625 -35.820312 68.734375 -32.09375 C 72.460938 -28.375 75.578125 -24.363281 78.078125 -20.0625 C 80.578125 -15.757812 81.828125 -11.050781 81.828125 -5.9375 Z M 81.828125 -5.9375 "/></g></g><g style="fill:#000000;fill-opacity:1;"><g transform="translate(191.571863, 146.468076)"><path style="stroke:none" d=""/></g></g><g style="fill:#000000;fill-opacity:1;"><g transform="translate(199.540613, 146.468076)"><path style="stroke:none" d="M 3.875 0.109375 C 3.175781 0.109375 2.570312 -0.0234375 2.0625 -0.296875 C 1.550781 -0.566406 1.164062 -0.925781 0.90625 -1.375 C 0.644531 -1.820312 0.515625 -2.285156 0.515625 -2.765625 L 0.515625 -2.875 L 2.640625 -2.875 L 2.640625 -2.78125 C 2.640625 -2.476562 2.75 -2.203125 2.96875 -1.953125 C 3.1875 -1.703125 3.503906 -1.578125 3.921875 -1.578125 C 4.273438 -1.578125 4.554688 -1.664062 4.765625 -1.84375 C 4.984375 -2.03125 5.09375 -2.273438 5.09375 -2.578125 C 5.09375 -2.847656 5 -3.0625 4.8125 -3.21875 C 4.625 -3.382812 4.390625 -3.492188 4.109375 -3.546875 L 3.125 -3.75 C 2.539062 -3.882812 1.992188 -4.132812 1.484375 -4.5 C 0.972656 -4.863281 0.71875 -5.460938 0.71875 -6.296875 C 0.71875 -6.835938 0.847656 -7.300781 1.109375 -7.6875 C 1.378906 -8.082031 1.742188 -8.382812 2.203125 -8.59375 C 2.671875 -8.800781 3.203125 -8.90625 3.796875 -8.90625 C 4.460938 -8.90625 5.039062 -8.773438 5.53125 -8.515625 C 6.019531 -8.253906 6.390625 -7.914062 6.640625 -7.5 C 6.890625 -7.09375 7.015625 -6.664062 7.015625 -6.21875 L 7.015625 -6.15625 L 4.890625 -6.15625 L 4.890625 -6.203125 C 4.890625 -6.460938 4.796875 -6.707031 4.609375 -6.9375 C 4.421875 -7.164062 4.125 -7.28125 3.71875 -7.28125 C 3.394531 -7.28125 3.140625 -7.191406 2.953125 -7.015625 C 2.773438 -6.847656 2.6875 -6.617188 2.6875 -6.328125 C 2.6875 -6.054688 2.785156 -5.84375 2.984375 -5.6875 C 3.191406 -5.53125 3.441406 -5.421875 3.734375 -5.359375 L 4.75 -5.140625 C 5.40625 -4.992188 5.960938 -4.722656 6.421875 -4.328125 C 6.890625 -3.941406 7.125 -3.375 7.125 -2.625 C 7.125 -2.082031 6.984375 -1.601562 6.703125 -1.1875 C 6.421875 -0.769531 6.03125 -0.445312 5.53125 -0.21875 C 5.039062 0 4.488281 0.109375 3.875 0.109375 Z M 3.875 0.109375 "/></g></g><g style="fill:#000000;fill-opacity:1;"><g transform="translate(212.175908, 146.468076)"><path style="stroke:none" d="M 7.828125 -8.734375 L 7.828125 0 L 5.875 0 L 5.875 -3.609375 L 2.59375 -3.609375 L 2.59375 0 L 0.640625 0 L 0.640625 -8.734375 L 2.59375 -8.734375 L 2.59375 -5.140625 L 5.875 -5.140625 L 5.875 -8.734375 Z M 7.828125 -8.734375 "/></g></g><g style="fill:#000000;fill-opacity:1;"><g transform="translate(225.746356, 146.468076)"><path style="stroke:none" d="M 4.5 0.109375 C 3.625 0.109375 2.882812 -0.0859375 2.28125 -0.484375 C 1.675781 -0.890625 1.222656 -1.429688 0.921875 -2.109375 C 0.617188 -2.785156 0.46875 -3.535156 0.46875 -4.359375 C 0.46875 -5.179688 0.617188 -5.9375 0.921875 -6.625 C 1.234375 -7.320312 1.691406 -7.875 2.296875 -8.28125 C 2.898438 -8.695312 3.632812 -8.90625 4.5 -8.90625 C 5.34375 -8.90625 6.066406 -8.703125 6.671875 -8.296875 C 7.273438 -7.890625 7.726562 -7.335938 8.03125 -6.640625 C 8.332031 -5.941406 8.484375 -5.179688 8.484375 -4.359375 C 8.484375 -3.523438 8.332031 -2.769531 8.03125 -2.09375 C 7.726562 -1.414062 7.273438 -0.878906 6.671875 -0.484375 C 6.066406 -0.0859375 5.34375 0.109375 4.5 0.109375 Z M 4.484375 -1.625 C 5.097656 -1.625 5.570312 -1.882812 5.90625 -2.40625 C 6.25 -2.925781 6.421875 -3.582031 6.421875 -4.375 C 6.421875 -5.15625 6.253906 -5.816406 5.921875 -6.359375 C 5.585938 -6.898438 5.109375 -7.171875 4.484375 -7.171875 C 4.066406 -7.171875 3.707031 -7.039062 3.40625 -6.78125 C 3.113281 -6.519531 2.894531 -6.175781 2.75 -5.75 C 2.601562 -5.332031 2.53125 -4.875 2.53125 -4.375 C 2.53125 -3.601562 2.695312 -2.953125 3.03125 -2.421875 C 3.375 -1.890625 3.859375 -1.625 4.484375 -1.625 Z M 4.484375 -1.625 "/></g></g><g style="fill:#000000;fill-opacity:1;"><g transform="translate(239.840499, 146.468076)"><path style="stroke:none" d="M 3.96875 -8.734375 C 4.65625 -8.734375 5.238281 -8.585938 5.71875 -8.296875 C 6.195312 -8.015625 6.550781 -7.640625 6.78125 -7.171875 C 7.007812 -6.710938 7.125 -6.210938 7.125 -5.671875 C 7.125 -5.140625 7.007812 -4.644531 6.78125 -4.1875 C 6.5625 -3.738281 6.210938 -3.375 5.734375 -3.09375 C 5.253906 -2.820312 4.664062 -2.6875 3.96875 -2.6875 L 2.5625 -2.6875 L 2.5625 0 L 0.640625 0 L 0.640625 -8.734375 Z M 3.65625 -4.296875 C 4.101562 -4.296875 4.476562 -4.398438 4.78125 -4.609375 C 5.09375 -4.816406 5.25 -5.171875 5.25 -5.671875 C 5.25 -6.171875 5.097656 -6.519531 4.796875 -6.71875 C 4.492188 -6.914062 4.113281 -7.015625 3.65625 -7.015625 L 2.5625 -7.015625 L 2.5625 -4.296875 Z M 3.65625 -4.296875 "/></g></g><g style="fill:#000000;fill-opacity:1;"><g transform="translate(252.23889, 146.468076)"><path style="stroke:none" d="M 4.5 0.109375 C 3.625 0.109375 2.882812 -0.0859375 2.28125 -0.484375 C 1.675781 -0.890625 1.222656 -1.429688 0.921875 -2.109375 C 0.617188 -2.785156 0.46875 -3.535156 0.46875 -4.359375 C 0.46875 -5.179688 0.617188 -5.9375 0.921875 -6.625 C 1.234375 -7.320312 1.691406 -7.875 2.296875 -8.28125 C 2.898438 -8.695312 3.632812 -8.90625 4.5 -8.90625 C 5.34375 -8.90625 6.066406 -8.703125 6.671875 -8.296875 C 7.273438 -7.890625 7.726562 -7.335938 8.03125 -6.640625 C 8.332031 -5.941406 8.484375 -5.179688 8.484375 -4.359375 C 8.484375 -3.523438 8.332031 -2.769531 8.03125 -2.09375 C 7.726562 -1.414062 7.273438 -0.878906 6.671875 -0.484375 C 6.066406 -0.0859375 5.34375 0.109375 4.5 0.109375 Z M 4.484375 -1.625 C 5.097656 -1.625 5.570312 -1.882812 5.90625 -2.40625 C 6.25 -2.925781 6.421875 -3.582031 6.421875 -4.375 C 6.421875 -5.15625 6.253906 -5.816406 5.921875 -6.359375 C 5.585938 -6.898438 5.109375 -7.171875 4.484375 -7.171875 C 4.066406 -7.171875 3.707031 -7.039062 3.40625 -6.78125 C 3.113281 -6.519531 2.894531 -6.175781 2.75 -5.75 C 2.601562 -5.332031 2.53125 -4.875 2.53125 -4.375 C 2.53125 -3.601562 2.695312 -2.953125 3.03125 -2.421875 C 3.375 -1.890625 3.859375 -1.625 4.484375 -1.625 Z M 4.484375 -1.625 "/></g></g><g style="fill:#000000;fill-opacity:1;"><g transform="translate(266.333032, 146.468076)"><path style="stroke:none" d="M 3.59375 -3.0625 L 2.578125 -3.0625 L 2.578125 0 L 0.640625 0 L 0.640625 -8.734375 L 3.96875 -8.734375 C 4.65625 -8.734375 5.238281 -8.597656 5.71875 -8.328125 C 6.195312 -8.066406 6.550781 -7.71875 6.78125 -7.28125 C 7.007812 -6.84375 7.125 -6.367188 7.125 -5.859375 C 7.125 -5.296875 6.984375 -4.785156 6.703125 -4.328125 C 6.421875 -3.878906 6.007812 -3.539062 5.46875 -3.3125 L 7.328125 0 L 5.296875 0 Z M 2.578125 -4.640625 L 3.65625 -4.640625 C 4.101562 -4.640625 4.476562 -4.734375 4.78125 -4.921875 C 5.09375 -5.109375 5.25 -5.421875 5.25 -5.859375 C 5.25 -6.285156 5.097656 -6.585938 4.796875 -6.765625 C 4.492188 -6.941406 4.113281 -7.03125 3.65625 -7.03125 L 2.578125 -7.03125 Z M 2.578125 -4.640625 "/></g></g><g style="fill:#000000;fill-opacity:1;"><g transform="translate(279.005738, 146.468076)"><path style="stroke:none" d="M 5.609375 -2.015625 L 2.8125 -2.015625 L 2.1875 0 L 0.21875 0 L 3.328125 -8.734375 L 5.140625 -8.734375 L 8.21875 0 L 6.25 0 Z M 5.140625 -3.5 L 4.234375 -6.328125 L 4.171875 -6.328125 L 3.296875 -3.5 Z M 5.140625 -3.5 "/></g></g></g></svg>