<svg xmlns="http://www.w3.org/2000/svg" xmlns:xlink="http://www.w3.org/1999/xlink" width="500" zoomAndPan="magnify" viewBox="0 0 375 187.499995" height="250" preserveAspectRatio="xMidYMid meet" version="1.2"><defs><clipPath id="924e388a9d"><path d="M 0.5 0 L 374.5 0 L 374.5 187 L 0.5 187 Z M 0.5 0 "/></clipPath></defs><g id="7c09fdf0b8"><g clip-rule="nonzero" clip-path="url(#924e388a9d)"><path style=" stroke:none;fill-rule:nonzero;fill:#ffffff;fill-opacity:1;" d="M 0.5 0 L 374.5 0 L 374.5 187 L 0.5 187 Z M 0.5 0 "/><path style=" stroke:none;fill-rule:nonzero;fill:#1a1a2e;fill-opacity:1;" d="M 0.5 0 L 374.5 0 L 374.5 187 L 0.5 187 Z M 0.5 0 "/></g><g style="fill:#ff6f00;fill-opacity:1;"><g transform="translate(165.086066, 123.523303)"><path style="stroke:none" d="M 67.796875 7.8125 C 70.484375 7.8125 72.972656 8.023438 75.265625 8.453125 C 77.566406 8.878906 79.742188 9.535156 81.796875 10.421875 C 83.847656 11.316406 85.835938 12.453125 87.765625 13.828125 C 89.703125 15.203125 91.617188 16.835938 93.515625 18.734375 L 93.140625 19.203125 C 91.367188 17.671875 89.347656 16.382812 87.078125 15.34375 C 84.816406 14.300781 82.457031 13.488281 80 12.90625 C 77.550781 12.320312 75.085938 11.90625 72.609375 11.65625 C 70.128906 11.414062 67.757812 11.296875 65.5 11.296875 C 62.007812 11.296875 58.578125 11.507812 55.203125 11.9375 C 51.835938 12.363281 48.441406 12.851562 45.015625 13.40625 L 39.21875 14.328125 C 35.851562 14.878906 32.46875 15.367188 29.0625 15.796875 C 25.664062 16.222656 22.222656 16.4375 18.734375 16.4375 C 15.492188 16.4375 12.3125 15.976562 9.1875 15.0625 C 6.0625 14.144531 3.273438 12.78125 0.828125 10.96875 C -1.617188 9.164062 -3.59375 6.898438 -5.09375 4.171875 C -6.59375 1.453125 -7.34375 -1.710938 -7.34375 -5.328125 C -7.34375 -7.535156 -7.035156 -9.691406 -6.421875 -11.796875 C -5.816406 -13.910156 -4.929688 -15.851562 -3.765625 -17.625 C -2.597656 -19.40625 -1.175781 -21 0.5 -22.40625 C 2.1875 -23.820312 4.070312 -24.925781 6.15625 -25.71875 L 6.15625 -39.3125 C 6.15625 -40.539062 5.925781 -41.703125 5.46875 -42.796875 C 5.007812 -43.898438 4.132812 -44.640625 2.84375 -45.015625 L 14.96875 -45.015625 C 13.625 -44.640625 12.738281 -43.898438 12.3125 -42.796875 C 11.882812 -41.703125 11.671875 -40.539062 11.671875 -39.3125 L 11.671875 -27.09375 C 12.335938 -27.28125 13.007812 -27.40625 13.6875 -27.46875 C 14.363281 -27.53125 15.035156 -27.5625 15.703125 -27.5625 C 19.015625 -27.5625 22.140625 -27.023438 25.078125 -25.953125 C 28.015625 -24.878906 30.648438 -23.179688 32.984375 -20.859375 L 32.984375 -39.40625 C 32.984375 -40.632812 32.75 -41.78125 32.28125 -42.84375 C 31.820312 -43.914062 30.953125 -44.640625 29.671875 -45.015625 L 41.796875 -45.015625 C 40.453125 -44.640625 39.5625 -43.914062 39.125 -42.84375 C 38.695312 -41.78125 38.484375 -40.632812 38.484375 -39.40625 L 38.484375 -5.6875 C 38.484375 -4.46875 38.726562 -3.304688 39.21875 -2.203125 C 39.707031 -1.097656 40.566406 -0.363281 41.796875 0 L 29.671875 0 C 30.953125 -0.363281 31.820312 -1.113281 32.28125 -2.25 C 32.75 -3.382812 32.984375 -4.5625 32.984375 -5.78125 L 32.984375 -19.84375 C 30.898438 -21.863281 28.539062 -23.46875 25.90625 -24.65625 C 23.269531 -25.851562 20.484375 -26.453125 17.546875 -26.453125 C 16.503906 -26.453125 15.507812 -26.4375 14.5625 -26.40625 C 13.613281 -26.375 12.648438 -26.238281 11.671875 -26 L 11.671875 -5.6875 C 11.671875 -4.46875 11.898438 -3.304688 12.359375 -2.203125 C 12.816406 -1.097656 13.6875 -0.363281 14.96875 0 L 2.84375 0 C 4.132812 -0.363281 5.007812 -1.113281 5.46875 -2.25 C 5.925781 -3.382812 6.15625 -4.5625 6.15625 -5.78125 L 6.15625 -24.15625 C 2.300781 -22.195312 -0.421875 -19.410156 -2.015625 -15.796875 C -3.609375 -12.179688 -4.40625 -8.320312 -4.40625 -4.21875 C -4.40625 -0.851562 -3.71875 2.082031 -2.34375 4.59375 C -0.96875 7.101562 0.835938 9.179688 3.078125 10.828125 C 5.316406 12.484375 7.890625 13.707031 10.796875 14.5 C 13.703125 15.300781 16.65625 15.703125 19.65625 15.703125 C 23.332031 15.703125 26.898438 15.378906 30.359375 14.734375 C 33.816406 14.097656 37.289062 13.351562 40.78125 12.5 L 46.671875 11.015625 C 50.160156 10.160156 53.632812 9.410156 57.09375 8.765625 C 60.550781 8.128906 64.117188 7.8125 67.796875 7.8125 Z M 67.796875 7.8125 "/></g></g><g style="fill:#ff6f00;fill-opacity:1;"><g transform="translate(132.478617, 101.628124)"><path style="stroke:none" d="M 43.09375 -3.125 C 43.09375 -0.0625 42.601562 2.722656 41.625 5.234375 C 40.644531 7.742188 39.25 9.882812 37.4375 11.65625 C 35.632812 13.4375 33.472656 14.816406 30.953125 15.796875 C 28.441406 16.773438 25.65625 17.265625 22.59375 17.265625 C 19.84375 17.265625 17.210938 16.835938 14.703125 15.984375 C 12.191406 15.128906 9.984375 13.890625 8.078125 12.265625 C 6.179688 10.640625 4.664062 8.660156 3.53125 6.328125 C 2.40625 4.003906 1.84375 1.375 1.84375 -1.5625 C 1.84375 -4.375 2.332031 -6.789062 3.3125 -8.8125 C 4.289062 -10.84375 5.617188 -12.515625 7.296875 -13.828125 C 8.984375 -15.140625 10.957031 -16.117188 13.21875 -16.765625 C 15.488281 -17.410156 17.910156 -17.734375 20.484375 -17.734375 L 20.484375 -17.359375 C 18.285156 -17.242188 16.25 -16.707031 14.375 -15.75 C 12.507812 -14.800781 10.914062 -13.5625 9.59375 -12.03125 C 8.28125 -10.5 7.253906 -8.753906 6.515625 -6.796875 C 5.785156 -4.835938 5.421875 -2.753906 5.421875 -0.546875 C 5.421875 1.960938 5.832031 4.242188 6.65625 6.296875 C 7.488281 8.347656 8.640625 10.109375 10.109375 11.578125 C 11.578125 13.046875 13.351562 14.175781 15.4375 14.96875 C 17.519531 15.769531 19.816406 16.171875 22.328125 16.171875 C 27.285156 16.171875 31.15625 14.710938 33.9375 11.796875 C 36.726562 8.890625 38.125 4.957031 38.125 0 C 38.125 -2.632812 37.523438 -5.035156 36.328125 -7.203125 C 35.140625 -9.378906 33.640625 -11.429688 31.828125 -13.359375 C 30.023438 -15.296875 28.066406 -17.148438 25.953125 -18.921875 C 23.835938 -20.703125 21.875 -22.476562 20.0625 -24.25 C 18.257812 -26.03125 16.757812 -27.867188 15.5625 -29.765625 C 14.375 -31.660156 13.78125 -33.710938 13.78125 -35.921875 C 13.78125 -37.515625 14.070312 -38.953125 14.65625 -40.234375 C 15.238281 -41.523438 16.035156 -42.597656 17.046875 -43.453125 C 18.054688 -44.316406 19.234375 -44.976562 20.578125 -45.4375 C 21.921875 -45.894531 23.359375 -46.125 24.890625 -46.125 C 25.503906 -46.125 26.101562 -46.0625 26.6875 -45.9375 C 27.269531 -45.8125 27.835938 -45.6875 28.390625 -45.5625 L 30.6875 -44.828125 C 31.914062 -44.460938 33.078125 -44.28125 34.171875 -44.28125 C 35.035156 -44.28125 35.710938 -44.617188 36.203125 -45.296875 L 35.5625 -34.640625 C 35.3125 -35.859375 34.878906 -37.109375 34.265625 -38.390625 C 33.648438 -39.679688 32.867188 -40.847656 31.921875 -41.890625 C 30.972656 -42.929688 29.898438 -43.800781 28.703125 -44.5 C 27.515625 -45.207031 26.21875 -45.5625 24.8125 -45.5625 C 22.539062 -45.5625 20.59375 -44.945312 18.96875 -43.71875 C 17.34375 -42.5 16.53125 -40.664062 16.53125 -38.21875 C 16.53125 -36.320312 17.1875 -34.5 18.5 -32.75 C 19.820312 -31.007812 21.460938 -29.296875 23.421875 -27.609375 C 25.390625 -25.921875 27.519531 -24.203125 29.8125 -22.453125 C 32.113281 -20.710938 34.242188 -18.863281 36.203125 -16.90625 C 38.160156 -14.945312 39.796875 -12.832031 41.109375 -10.5625 C 42.429688 -8.300781 43.09375 -5.820312 43.09375 -3.125 Z M 43.09375 -3.125 "/></g></g><g style="fill:#d9d9d9;fill-opacity:1;"><g transform="translate(170.769642, 67.121756)"><path style="stroke:none" d=""/></g></g><g style="fill:#d9d9d9;fill-opacity:1;"><g transform="translate(178.787324, 67.121756)"><path style="stroke:none" d="M 3.90625 0.109375 C 3.195312 0.109375 2.585938 -0.0234375 2.078125 -0.296875 C 1.566406 -0.578125 1.175781 -0.941406 0.90625 -1.390625 C 0.644531 -1.835938 0.515625 -2.300781 0.515625 -2.78125 L 0.515625 -2.890625 L 2.65625 -2.890625 L 2.65625 -2.796875 C 2.65625 -2.492188 2.765625 -2.21875 2.984375 -1.96875 C 3.203125 -1.71875 3.519531 -1.59375 3.9375 -1.59375 C 4.300781 -1.59375 4.585938 -1.679688 4.796875 -1.859375 C 5.015625 -2.046875 5.125 -2.289062 5.125 -2.59375 C 5.125 -2.863281 5.023438 -3.078125 4.828125 -3.234375 C 4.640625 -3.398438 4.410156 -3.515625 4.140625 -3.578125 L 3.140625 -3.78125 C 2.554688 -3.914062 2.007812 -4.164062 1.5 -4.53125 C 0.988281 -4.894531 0.734375 -5.5 0.734375 -6.34375 C 0.734375 -6.882812 0.863281 -7.347656 1.125 -7.734375 C 1.382812 -8.128906 1.75 -8.429688 2.21875 -8.640625 C 2.6875 -8.847656 3.21875 -8.953125 3.8125 -8.953125 C 4.488281 -8.953125 5.070312 -8.820312 5.5625 -8.5625 C 6.0625 -8.3125 6.4375 -7.976562 6.6875 -7.5625 C 6.9375 -7.144531 7.0625 -6.710938 7.0625 -6.265625 L 7.0625 -6.203125 L 4.921875 -6.203125 L 4.921875 -6.234375 C 4.921875 -6.503906 4.828125 -6.753906 4.640625 -6.984375 C 4.453125 -7.210938 4.148438 -7.328125 3.734375 -7.328125 C 3.421875 -7.328125 3.171875 -7.238281 2.984375 -7.0625 C 2.796875 -6.882812 2.703125 -6.65625 2.703125 -6.375 C 2.703125 -6.09375 2.804688 -5.875 3.015625 -5.71875 C 3.222656 -5.5625 3.472656 -5.453125 3.765625 -5.390625 L 4.78125 -5.171875 C 5.4375 -5.023438 6 -4.753906 6.46875 -4.359375 C 6.9375 -3.972656 7.171875 -3.398438 7.171875 -2.640625 C 7.171875 -2.085938 7.03125 -1.601562 6.75 -1.1875 C 6.46875 -0.769531 6.078125 -0.445312 5.578125 -0.21875 C 5.078125 0 4.519531 0.109375 3.90625 0.109375 Z M 3.90625 0.109375 "/></g></g><g style="fill:#d9d9d9;fill-opacity:1;"><g transform="translate(191.49693, 67.121756)"><path style="stroke:none" d="M 7.875 -8.78125 L 7.875 0 L 5.90625 0 L 5.90625 -3.640625 L 2.609375 -3.640625 L 2.609375 0 L 0.65625 0 L 0.65625 -8.78125 L 2.609375 -8.78125 L 2.609375 -5.171875 L 5.90625 -5.171875 L 5.90625 -8.78125 Z M 7.875 -8.78125 "/></g></g><g style="fill:#d9d9d9;fill-opacity:1;"><g transform="translate(205.14709, 67.121756)"><path style="stroke:none" d="M 4.53125 0.109375 C 3.65625 0.109375 2.910156 -0.09375 2.296875 -0.5 C 1.679688 -0.90625 1.222656 -1.445312 0.921875 -2.125 C 0.617188 -2.8125 0.46875 -3.566406 0.46875 -4.390625 C 0.46875 -5.222656 0.617188 -5.984375 0.921875 -6.671875 C 1.234375 -7.367188 1.691406 -7.921875 2.296875 -8.328125 C 2.910156 -8.742188 3.65625 -8.953125 4.53125 -8.953125 C 5.382812 -8.953125 6.113281 -8.75 6.71875 -8.34375 C 7.320312 -7.9375 7.773438 -7.382812 8.078125 -6.6875 C 8.390625 -5.988281 8.546875 -5.21875 8.546875 -4.375 C 8.546875 -3.539062 8.390625 -2.78125 8.078125 -2.09375 C 7.773438 -1.414062 7.320312 -0.878906 6.71875 -0.484375 C 6.113281 -0.0859375 5.382812 0.109375 4.53125 0.109375 Z M 4.515625 -1.625 C 5.128906 -1.625 5.609375 -1.890625 5.953125 -2.421875 C 6.296875 -2.953125 6.46875 -3.613281 6.46875 -4.40625 C 6.46875 -5.1875 6.296875 -5.847656 5.953125 -6.390625 C 5.617188 -6.941406 5.140625 -7.21875 4.515625 -7.21875 C 4.085938 -7.21875 3.722656 -7.085938 3.421875 -6.828125 C 3.128906 -6.566406 2.910156 -6.222656 2.765625 -5.796875 C 2.617188 -5.367188 2.546875 -4.90625 2.546875 -4.40625 C 2.546875 -3.625 2.710938 -2.960938 3.046875 -2.421875 C 3.390625 -1.890625 3.878906 -1.625 4.515625 -1.625 Z M 4.515625 -1.625 "/></g></g><g style="fill:#d9d9d9;fill-opacity:1;"><g transform="translate(219.323968, 67.121756)"><path style="stroke:none" d="M 3.984375 -8.78125 C 4.679688 -8.78125 5.269531 -8.632812 5.75 -8.34375 C 6.226562 -8.0625 6.582031 -7.6875 6.8125 -7.21875 C 7.050781 -6.757812 7.171875 -6.253906 7.171875 -5.703125 C 7.171875 -5.171875 7.054688 -4.675781 6.828125 -4.21875 C 6.597656 -3.757812 6.242188 -3.390625 5.765625 -3.109375 C 5.285156 -2.835938 4.691406 -2.703125 3.984375 -2.703125 L 2.578125 -2.703125 L 2.578125 0 L 0.65625 0 L 0.65625 -8.78125 Z M 3.671875 -4.3125 C 4.128906 -4.3125 4.507812 -4.414062 4.8125 -4.625 C 5.125 -4.84375 5.28125 -5.203125 5.28125 -5.703125 C 5.28125 -6.210938 5.125 -6.566406 4.8125 -6.765625 C 4.507812 -6.960938 4.128906 -7.0625 3.671875 -7.0625 L 2.578125 -7.0625 L 2.578125 -4.3125 Z M 3.671875 -4.3125 "/></g></g><g style="fill:#d9d9d9;fill-opacity:1;"><g transform="translate(231.795303, 67.121756)"><path style="stroke:none" d="M 4.53125 0.109375 C 3.65625 0.109375 2.910156 -0.09375 2.296875 -0.5 C 1.679688 -0.90625 1.222656 -1.445312 0.921875 -2.125 C 0.617188 -2.8125 0.46875 -3.566406 0.46875 -4.390625 C 0.46875 -5.222656 0.617188 -5.984375 0.921875 -6.671875 C 1.234375 -7.367188 1.691406 -7.921875 2.296875 -8.328125 C 2.910156 -8.742188 3.65625 -8.953125 4.53125 -8.953125 C 5.382812 -8.953125 6.113281 -8.75 6.71875 -8.34375 C 7.320312 -7.9375 7.773438 -7.382812 8.078125 -6.6875 C 8.390625 -5.988281 8.546875 -5.21875 8.546875 -4.375 C 8.546875 -3.539062 8.390625 -2.78125 8.078125 -2.09375 C 7.773438 -1.414062 7.320312 -0.878906 6.71875 -0.484375 C 6.113281 -0.0859375 5.382812 0.109375 4.53125 0.109375 Z M 4.515625 -1.625 C 5.128906 -1.625 5.609375 -1.890625 5.953125 -2.421875 C 6.296875 -2.953125 6.46875 -3.613281 6.46875 -4.40625 C 6.46875 -5.1875 6.296875 -5.847656 5.953125 -6.390625 C 5.617188 -6.941406 5.140625 -7.21875 4.515625 -7.21875 C 4.085938 -7.21875 3.722656 -7.085938 3.421875 -6.828125 C 3.128906 -6.566406 2.910156 -6.222656 2.765625 -5.796875 C 2.617188 -5.367188 2.546875 -4.90625 2.546875 -4.40625 C 2.546875 -3.625 2.710938 -2.960938 3.046875 -2.421875 C 3.390625 -1.890625 3.878906 -1.625 4.515625 -1.625 Z M 4.515625 -1.625 "/></g></g><g style="fill:#d9d9d9;fill-opacity:1;"><g transform="translate(245.97218, 67.121756)"><path style="stroke:none" d="M 3.609375 -3.078125 L 2.59375 -3.078125 L 2.59375 0 L 0.65625 0 L 0.65625 -8.78125 L 3.984375 -8.78125 C 4.679688 -8.78125 5.269531 -8.644531 5.75 -8.375 C 6.226562 -8.113281 6.582031 -7.757812 6.8125 -7.3125 C 7.050781 -6.875 7.171875 -6.398438 7.171875 -5.890625 C 7.171875 -5.328125 7.03125 -4.816406 6.75 -4.359375 C 6.46875 -3.898438 6.050781 -3.5625 5.5 -3.34375 L 7.375 0 L 5.328125 0 Z M 2.59375 -4.671875 L 3.671875 -4.671875 C 4.128906 -4.671875 4.507812 -4.765625 4.8125 -4.953125 C 5.125 -5.140625 5.28125 -5.453125 5.28125 -5.890625 C 5.28125 -6.316406 5.125 -6.617188 4.8125 -6.796875 C 4.507812 -6.984375 4.128906 -7.078125 3.671875 -7.078125 L 2.59375 -7.078125 Z M 2.59375 -4.671875 "/></g></g><g style="fill:#d9d9d9;fill-opacity:1;"><g transform="translate(258.719406, 67.121756)"><path style="stroke:none" d="M 5.640625 -2.03125 L 2.828125 -2.03125 L 2.203125 0 L 0.21875 0 L 3.34375 -8.78125 L 5.171875 -8.78125 L 8.265625 0 L 6.28125 0 Z M 5.171875 -3.53125 L 4.265625 -6.359375 L 4.1875 -6.359375 L 3.3125 -3.53125 Z M 5.171875 -3.53125 "/></g></g></g></svg>